<svg x="0" y="0" width="48" height="48" version="1.1" xmlns="http://www.w3.org/2000/svg" xmlns:xlink="http://www.w3.org/1999/xlink"><defs><linearGradient x1="9.17215" y1="10.17303" x2="42.71694" y2="41.71606" gradientUnits="userSpaceOnUse" id="color-1"><stop offset="0.71" stop-color="#000000" stop-opacity="0.25"></stop><stop offset="1" stop-color="#000000" stop-opacity="0"></stop></linearGradient><filter id="dropshadow"><feColorMatrix type="matrix" values="0 0 0 0 .05  0 0 0 0 .15  0 0 0 0 .1  0 0 0 .8 0"></feColorMatrix> <feOffset dx="0" dy="1"></feOffset> <feGaussianBlur stdDeviation="1"></feGaussianBlur> <feComposite in="SourceGraphic"></feComposite></filter></defs><g fill="none" stroke="none" stroke-width="none" stroke-linecap="butt" stroke-linejoin="miter" stroke-miterlimit="none" stroke-dasharray="" stroke-dashoffset="0" font-family="none" font-weight="normal" font-size="none" text-anchor="start" mix-blend-mode="normal"><g fill="#000000" stroke="none" stroke-width="1" stroke-miterlimit="4" font-family="&quot;Open Sans&quot;, sans-serif" font-size="14"></g><path d="M3,24c0,-11.59798 9.40202,-21 21,-21c11.59798,0 21,9.40202 21,21c0,11.59798 -9.40202,21 -21,21c-11.59798,0 -21,-9.40202 -21,-21z" fill="#263238" stroke-width="1" stroke-miterlimit="10" font-family="sans-serif" font-size="12" filter="url(#dropshadow)"></path><path d="M42.71694,28.88997c0,3.77426 -1.41051,7.21168 -3.7343,9.82467c-1.11023,1.13033 -2.34738,2.13558 -3.68837,2.99268l-3.88036,-3.88036l-1.48278,-2.56522c0.22673,-0.13186 0.44872,-0.27089 0.66566,-0.41676l-2.14845,-2.14845l-0.48388,-0.84195c-0.02505,0.00063 -0.05018,0.00095 -0.07538,0.00095c-0.81553,0 -1.55692,-0.33363 -2.09443,-0.87114l-3.63489,-3.63489c-0.13163,0.4912 -0.20181,1.00759 -0.20181,1.54046c0,1.07661 0.28907,2.07827 0.79192,2.94197l2.17364,2.17364c0,0 -0.00001,0 -0.00001,-0.00001c0,0 -1.48278,2.58005 -1.48278,2.58005c-0.67533,-0.39237 -1.29499,-0.87018 -1.84358,-1.41877l-3.88909,-3.88909c-0.67895,-0.67896 -1.24906,-1.46634 -1.68113,-2.33435c0.00999,2.26123 0.65365,4.36738 1.76012,6.15772c0.08825,0.05466 0.17725,0.1082 0.26699,0.16061l3.88909,3.88909c-0.00001,0 -0.00002,-0.00001 -0.00002,-0.00001l0.00001,0.00001l-1.48278,2.56522c-1.1209,-0.65073 -2.14925,-1.44363 -3.05987,-2.35425c0,0 -0.01028,-0.01028 -0.01028,-0.01028c0.00342,0.00343 0.00685,0.00686 0.01027,0.01028l-3.88909,-3.88909c-2.67913,-2.67913 -4.33922,-6.37726 -4.33922,-10.47184c0,-8.18497 6.64288,-14.82785 14.82785,-14.82785c4.09249,0 7.79945,1.66072 10.48329,4.34456l3.88909,3.88909c2.68384,2.68384 4.34456,6.3908 4.34456,10.48329z M28.64329,14.081c1.40936,0.59967 2.67867,1.46414 3.74556,2.53103l0.00919,0.00919c-0.00306,-0.00306 -0.00612,-0.00613 -0.00918,-0.00919l3.88909,3.88909c1.06688,1.06688 1.93135,2.33619 2.53102,3.74554c-0.14109,-2.8117 -1.06655,-5.41782 -2.56185,-7.60381c-2.186,-1.4953 -4.79213,-2.42077 -7.60384,-2.56185z M35.56096,27.66514c0,0 0,-0.00001 0,-0.00001l-2.66425,-2.66425c0,-1.45323 -0.34969,-2.82586 -0.9694,-4.03822c-1.21236,-0.61971 -2.58499,-0.9694 -4.03822,-0.9694c-0.22519,0 -0.44844,0.0084 -0.66945,0.02489c0.35247,0.22815 0.67917,0.49268 0.97479,0.7883l3.88909,3.88909c0.29561,0.29561 0.56014,0.6223 0.78828,0.97476c0.0165,-0.22094 0.0249,-0.44417 0.0249,-0.66942z M35.86214,24.94252c-0.01086,-2.25802 -0.65183,-4.36642 -1.75618,-6.15848c-1.79206,-1.10436 -3.90047,-1.74533 -6.15849,-1.7562c0.8707,0.43256 1.66082,1.0036 2.34139,1.68418l3.88909,3.88909c0.68058,0.68058 1.25163,1.4707 1.68419,2.34141z M15.63724,37.23736c0.30345,0.20768 0.61498,0.4044 0.93401,0.58961l1.27848,-2.21177l-2.23504,-2.23504c-1.06788,-1.06789 -1.93427,-2.33677 -2.53511,-3.74639c0.13915,2.81501 1.06378,5.41953 2.55766,7.60359z M29.93114,25.00088c0,-0.6176 -0.09427,-1.21307 -0.26923,-1.77282c-0.55975,-0.17495 -1.15522,-0.26922 -1.77281,-0.26923c0,0 -0.00001,0 -0.00001,0c-0.53287,0 -1.04927,0.07018 -1.54046,0.20182l3.37854,3.37854c0.13292,-0.48923 0.20397,-1.00456 0.20397,-1.53831z M19.01889,28.19915c-0.01757,0.22799 -0.02651,0.45837 -0.02651,0.69082c0,1.25065 0.25898,2.43922 0.72571,3.51693l1.21439,-2.11305l-1.12952,-1.12952c0.00219,0.00219 0.00438,0.00437 0.00657,0.00656l-0.00657,-0.00657c-0.29358,-0.29358 -0.55675,-0.61682 -0.78407,-0.96517z M25.16203,27.72794c0.70054,-0.30084 1.26419,-0.86449 1.56502,-1.56502c-0.70054,0.30084 -1.26419,0.86449 -1.56502,1.56502z" fill="url(#color-1)" stroke-width="1" stroke-miterlimit="10" font-family="sans-serif" font-size="12"></path><path d="M24,10.17303c8.18497,0 14.82785,6.64288 14.82785,14.82785c0,5.4863 -2.9804,10.26087 -7.41392,12.82609l-1.48278,-2.56522c3.54386,-2.06107 5.93114,-5.87183 5.93114,-10.26087c0,-6.55391 -5.30837,-11.86228 -11.86228,-11.86228c-6.55391,0 -11.86228,5.30837 -11.86228,11.86228c0,4.38904 2.38728,8.1998 5.91631,10.26087l-1.48278,2.56522c-4.4187,-2.56522 -7.3991,-7.33978 -7.3991,-12.82609c0,-8.18497 6.64288,-14.82785 14.82785,-14.82785z M28.44835,32.69653l-1.48278,-2.58005c1.76451,-1.03795 2.96557,-2.92109 2.96557,-5.11561c0,-3.27695 -2.65418,-5.93114 -5.93114,-5.93114c-3.27695,0 -5.93114,2.65418 -5.93114,5.93114c0,2.19452 1.20106,4.07766 2.96557,5.11561l-1.48278,2.58005c-2.65418,-1.5421 -4.44835,-4.40387 -4.44835,-7.69565c0,-4.90802 3.98869,-8.89671 8.89671,-8.89671c4.90802,0 8.89671,3.98869 8.89671,8.89671c0,3.29178 -1.79417,6.15356 -4.44835,7.69565z M26.96557,25.00088c0,1.63106 -1.33451,2.96557 -2.96557,2.96557c-1.63106,0 -2.96557,-1.33451 -2.96557,-2.96557c0,-1.63106 1.33451,-2.96557 2.96557,-2.96557c1.63106,0 2.96557,1.33451 2.96557,2.96557z" fill="#f2f2f2" stroke-width="0" stroke-miterlimit="10" font-family="sans-serif" font-size="12"></path></g></svg>